
<svg width="540" height="540" version="1.1" xmlns="http://www.w3.org/2000/svg" xmlns:xlink="http://www.w3.org/1999/xlink"
	 viewBox="0 0 540 540">
<style type="text/css">
	.st0{fill:#FFFFFF;}
	.st1{display:none;}
	.st2{display:inline;fill:none;stroke:#133834;stroke-miterlimit:10;}
	.st3{fill:#51534A;}
	.st4{fill:#0071CE;}
	.st5{fill:#193643;}
	.st6{fill:#E1251B;}
	.st7{fill:#571D1E;}
	.st8{fill:#FFC629;}
	.st9{fill:#564826;}
	.st10{fill:#386349;}
	.st11{fill:#203127;}
</style>
<g id="Layer_1">
	<rect class="st0" width="540" height="540"/>
</g>
<g id="Live_Area" class="st1">
	<rect x="18" y="18" class="st2" width="504" height="504"/>
</g>
<g id="Logo">
	<g>
		<path class="st3" d="M86,265.8v16.7l-20.4-12V253L86,265.8 M64.6,270.6l-21.9,11.8v-6.6l-15.2,8.3v-11.4l37.1-19.8V270.6
			 M41.6,294.3l-20.4,11v-16.5l6.2-3.4h0v0l14.1-7.7V294.3 M19.7,262.4L43.1,250l12.4,6.5L32,269L19.7,262.4 M19.1,243.7l23.5-13.6
			V249l-23.5,12.4V243.7 M90.5,239v-1.2l-10.5,5.8v17.2l-14.8-9.3l-8.5,4.5l-13-6.9v-13.7L65,223.7l15,9.2v-1.3L65,222.4L43.6,234
			v-5.8L18,243v19.6l12.8,7l-4.2,2.2l-0.3,0.2v12.7l-6.3,3.4v19l22.1-11.9l14.1,7.5l-30,16.3v20.2h1.1v-19.6l30.1-16.3l0,0l0,0
			l7.4-4v20.3l24.3,13.5V332L65.9,319v-19.7l14,7.9v0h0l9.2,5.2v-1.3l-8.1-4.6v-17.3l-1.1,0.6V306l-14.6-8.2l-1.6,0.9l0.1-0.1
			l-6.4,3.5l-14.7-7.9v-10.6l22.5-12.1l22,13v-19.3l-6.1-3.8v-17.3L90.5,239"/>
		<path class="st3" d="M195.4,244.3c-8.9,0-15.4,3.3-20.9,10.8c-3.2-5.3-9-10.8-21.3-10.8c-9.1,0-16.3,3.9-20.6,8.7
			c-0.1-1.7-0.1-3.3-0.1-4.9v-2h-14.1v15.1c0,0.9,0,1.8,0,2.8v52.9h15.2v-34.5c0-10.8,3.2-23.6,18.6-23.6c6.6,0,10.8,3.1,10.8,18.3
			v39.8h15.2v-40.5c0-10.2,6.4-17.6,15.2-17.6c9.5,0,14.2,5.3,14.2,16.2v41.9h15.2v-42.5C222.8,254.1,213.9,244.3,195.4,244.3
			L195.4,244.3z"/>
		<path class="st3" d="M275.3,304.1c-12.7,0-21.6-9.3-21.6-22.7c0-13.4,8.9-22.7,21.6-22.7c12.7,0,21.6,9.3,21.6,22.7
			C296.9,294.8,288,304.1,275.3,304.1L275.3,304.1z M275.3,244.3c-21.8,0-37.6,15.6-37.6,37.1c0,21.5,15.8,37.1,37.6,37.1
			c21.8,0,37.6-15.6,37.6-37.1C312.9,259.9,297.1,244.3,275.3,244.3L275.3,244.3z"/>
		<path class="st3" d="M354.2,273.6c-7.1-1.4-15.1-3.5-15.1-7.7c0-5.3,6.8-7.2,11.1-7.2c6.7,0,10.4,3.8,12.3,7l1.1,1.8l12.6-8.3
			l-0.9-1.6c-4.5-8.5-13.2-13.2-24.4-13.2c-13.4,0-27,7.5-27,21.7c0,15.7,12.8,18.6,25.1,21.4c8.6,1.9,12.6,3.6,12.6,8.5
			c0,6.5-7.9,8.2-12.6,8.2c-6.2,0-10.7-2.4-15.5-8.2l-1.3-1.5l-11.9,9.2l1.1,1.6c6.5,9.3,14.7,13.3,27.6,13.3c13.2,0,28.7-6,28.7-23
			C377.6,287.4,374.9,277.6,354.2,273.6L354.2,273.6z"/>
		<path class="st3" d="M417.1,273.6c-7.1-1.4-15.1-3.5-15.1-7.7c0-5.3,6.8-7.2,11.1-7.2c6.7,0,10.4,3.8,12.3,7l1.1,1.8l12.6-8.3
			l-0.9-1.6c-4.5-8.5-13.2-13.2-24.4-13.2c-13.4,0-27,7.5-27,21.7c0,15.7,12.8,18.6,25.1,21.4c8.6,1.9,12.6,3.6,12.6,8.5
			c0,6.5-7.9,8.2-12.6,8.2c-6.2,0-10.7-2.4-15.5-8.2l-1.3-1.5l-11.9,9.2l1.1,1.6c6.5,9.3,14.7,13.3,27.6,13.3c13.2,0,28.7-6,28.7-23
			C440.6,287.4,437.9,277.6,417.1,273.6L417.1,273.6z"/>
		<path class="st3" d="M489.2,304.1c-12.7,0-21.6-9.3-21.6-22.7c0-13.4,8.9-22.7,21.6-22.7c12.7,0,21.6,9.3,21.6,22.7
			C510.8,294.8,501.9,304.1,489.2,304.1L489.2,304.1z M489.2,244.3c-21.8,0-37.6,15.6-37.6,37.1c0,21.5,15.8,37.1,37.6,37.1
			c21.8,0,37.6-15.6,37.6-37.1C526.8,259.9,511,244.3,489.2,244.3L489.2,244.3z"/>
		<path class="st4" d="M33.5,334.6v-18.2l23.9-13l0,0l0,0l4-2.2v19.1L33.5,334.6 M33.5,315.1v-15.2l8.7-4.7l14.1,7.5L33.5,315.1
			 M57.4,302.1l-14.7-7.9v-6.4l18.8-9.6v21.7L57.4,302.1 M33.5,298.7v-6.1l2.7-1.4l5.3,2.8v0.4L33.5,298.7"/>
		<polyline class="st5" points="33.5,316.3 33.5,315.1 56.2,302.7 42.1,295.2 33.5,299.9 33.5,298.7 41.6,294.3 41.6,293.9 
			42.3,294.3 42.3,288 42.6,287.8 42.6,294.3 57.4,302.1 61.4,299.9 61.4,301.2 57.4,303.3 57.4,303.4 57.4,303.4 33.5,316.3 		"/>
		<polyline class="st6" points="79.9,251.2 63.6,242.8 63.6,224.5 65,223.7 80,232.9 80,231.6 65,222.4 63.6,223.2 63.6,200.7 
			80.9,209.7 80.9,242.9 79.9,243.5 79.9,251.2 		"/>
		<path class="st7" d="M80.9,251.8l-1-0.5v-7.8l1-0.5V251.8 M80,232.9l-15-9.2l-1.4,0.8v-1.2l1.4-0.8l14.9,9.2V232.9"/>
		<path class="st8" d="M36.2,291.1l-9.9-5.2l1.1-0.6h0v0l14.1-7.7v10.8L36.2,291.1 M25.1,285.4l-0.1-0.1v-18.9l5.8,3.2l-4.2,2.2
			l-0.3,0.2v12.7L25.1,285.4 M27.5,284.1v-11.4l14.9-7.9V276L27.5,284.1 M32,269l-7-3.8v-5.7l15.5-8.2l1.8,1v11.2L32,269 M25,258.3
			v-15l14.3,7.4L25,258.3"/>
		<path class="st9" d="M41.6,288.4v-10.8l-14.1,7.7v0h0l-1.1,0.6l-1.2-0.6l1.2-0.7V272l0.3-0.2l4.2-2.2l-5.8-3.2v-1.2l7,3.8
			l10.3-5.5v1.2l-14.9,7.9v11.4l14.9-8.1v12L41.6,288.4 M25,259.5v-1.2l14.3-7.6l1.2,0.6L25,259.5"/>
		<polyline class="st10" points="41.6,293.9 36.2,291.1 41.6,288.4 41.6,293.9 		"/>
		<polyline class="st11" points="42.3,294.3 41.6,293.9 41.6,288.4 42.3,288 42.3,294.3 		"/>
	</g>
</g>
</svg>
