<svg width="120" height="54" viewBox="0 0 120 54" fill="none" xmlns="http://www.w3.org/2000/svg"><mask mask-type="alpha" maskUnits="userSpaceOnUse" x="0" y="0" width="120" height="19"><path fill-rule="evenodd" clip-rule="evenodd" d="M0 0.542969H120V18.3673H0V0.542969Z" fill="white"></path></mask><g><path fill-rule="evenodd" clip-rule="evenodd" d="M116.428 11.5762C116.428 10.9941 116.428 9.4172 115.621 8.4478C115.449 8.23013 114.913 7.69607 114.153 7.69607C111.486 7.69607 111.486 11.0194 111.486 11.5762C111.486 13.3467 111.977 15.5044 113.884 15.5044C114.3 15.5044 114.742 15.3602 115.108 15.1172C116.428 14.2199 116.428 12.2798 116.428 11.5762ZM120 0.784975V17.9052H116.575V16.7168C115.988 17.3002 115.01 18.2456 113.126 18.2456C111.854 18.2456 110.533 17.7609 109.531 16.7915C107.671 15.021 107.671 12.4735 107.671 11.6483C107.671 6.87221 110.41 4.90683 112.98 4.90683C114.666 4.90683 115.67 5.6826 116.354 6.19261V0.784975H120ZM101.409 17.9052H105.176V0.78371H101.409V17.9052ZM95.3387 9.99935C95.266 9.46656 95.1689 8.76292 94.6302 8.20482C94.1655 7.74416 93.457 7.50244 92.7945 7.50244C91.8906 7.50244 91.2536 7.93779 90.8872 8.32757C90.374 8.88441 90.2502 9.46656 90.1277 9.99935H95.3387ZM99.083 14.6806C98.6413 15.3361 98.2021 15.9664 97.5408 16.5725C96.4404 17.59 94.777 18.3671 92.723 18.3671C88.9302 18.3671 86.2634 15.9664 86.2634 11.8192C86.2634 8.76292 87.78 4.83469 92.8213 4.83469C93.5783 4.83469 95.7792 4.90683 97.4196 6.65327C99.083 8.42376 99.18 10.8979 99.2285 12.3279H90.1047C90.0791 13.9048 90.9843 15.4804 93.0153 15.4804C95.0706 15.4804 95.7792 14.1465 96.2438 13.2505L99.083 14.6806ZM80.0502 17.9052H83.7677V5.22195H80.0502V17.9052ZM80.0502 3.64635H83.7677V0.76093H80.0502V3.64635ZM71.9515 3.98552C71.9515 3.35528 72.0013 2.50611 72.4889 1.82778C72.9549 1.19627 74.0068 0.541992 75.7672 0.541992C76.5268 0.541992 77.2851 0.663484 78.0179 0.76093V3.54891H77.114C75.6945 3.54891 75.6204 3.83998 75.646 5.53833H78.1647V7.81756H75.6702V17.9052H71.9272V7.81756H69.9204V5.53833H71.9515V3.98552ZM57.0523 0.784975H60.7468V9.58805L64.8804 5.24726H69.4072L65.003 9.75763L69.9689 17.9052H65.6145L62.3374 12.4494L60.7213 13.9529V17.9052H57.0523V0.784975ZM45.3332 9.05526C44.8685 9.78294 44.6974 10.6549 44.6974 11.5281C44.6974 13.5403 45.6766 15.3108 47.7804 15.3108C49.8089 15.3108 50.8136 13.6859 50.8136 11.6977C50.8136 10.2917 50.4702 9.19953 49.7617 8.5212C48.9791 7.79352 48.0983 7.76947 47.5596 7.81756C46.4834 7.8897 45.8464 8.25417 45.3332 9.05526ZM54.6294 11.5522C54.6294 14.7527 52.7706 18.2696 47.7804 18.2696C44.1843 18.2696 40.9047 16.2321 40.9047 11.5522C40.9047 7.67203 43.3762 4.59171 48.2694 4.85874C53.4791 5.14981 54.6294 9.24889 54.6294 11.5522ZM30.0434 9.05526C29.5787 9.78294 29.4064 10.6549 29.4064 11.5281C29.4064 13.5403 30.3855 15.3108 32.4894 15.3108C34.5191 15.3108 35.5226 13.6859 35.5226 11.6977C35.5226 10.2917 35.1804 9.19953 34.4706 8.5212C33.6881 7.79352 32.8072 7.76947 32.2698 7.81756C31.1923 7.8897 30.5566 8.25417 30.0434 9.05526ZM39.3383 11.5522C39.3383 14.7527 37.4796 18.2696 32.4894 18.2696C28.8932 18.2696 25.6149 16.2321 25.6149 11.5522C25.6149 7.67203 28.0864 4.59171 32.9783 4.85874C38.1894 5.14981 39.3383 9.24889 39.3383 11.5522ZM20.9413 6.55709C21.7736 5.85345 22.6787 5.29535 24.6357 5.10172V8.39971L23.3885 8.59334C21.5783 8.90845 21.0396 9.17548 21.0396 10.7764V17.9052H17.2723V5.22195H20.9413V6.55709ZM4.11064 10.6549V14.8021H7.11957C8.56213 14.778 10.4451 14.7299 10.4451 12.7645C10.4451 10.7043 8.73319 10.6789 7.85234 10.6549H4.11064ZM4.11064 3.98552V7.55053H7.3634C8.34255 7.52649 9.93192 7.4784 9.93192 5.70791C9.93192 4.05892 8.48936 3.98552 7.65702 3.98552H4.11064ZM0 0.784975H6.67787C8.48936 0.784975 10.1272 0.857111 11.1804 1.19627C13.3085 1.87587 14.1638 3.54891 14.1638 5.17386C14.1638 6.09517 13.92 6.65327 13.846 6.82285C13.0634 8.56929 11.4 8.90845 10.4706 9.10208C11.5226 9.27293 12.9166 9.4906 13.8702 10.5574C14.4817 11.213 14.8251 12.1584 14.8251 13.129C14.8251 14.4616 14.1153 16.3296 11.9617 17.2749C10.666 17.833 9.27191 17.9052 7.28936 17.9052H0V0.784975Z" fill="#0F3557"></path></g><path fill-rule="evenodd" clip-rule="evenodd" d="M98.8782 42.8655C97.0188 42.4196 94.7439 41.8986 94.7439 39.4673C94.7439 37.3332 96.5294 35.9928 99.1968 35.9928C101.399 35.9928 103.747 37.0605 104.138 39.815L102.035 40.0877C102.01 39.3677 101.961 38.7977 101.202 38.2018C100.445 37.6059 99.5639 37.5064 98.9763 37.5064C97.4598 37.5064 96.7015 38.4242 96.7015 39.2191C96.7015 40.3359 97.9491 40.6836 99.4657 41.0559L100.566 41.3286C101.936 41.6505 104.407 42.2464 104.407 44.7023C104.407 46.6127 102.744 48.3991 99.5639 48.3991C98.2678 48.3991 96.9219 48.1264 95.9916 47.4568C95.6245 47.1841 94.4992 46.2405 94.28 44.2809L96.481 43.9332C96.4568 44.4541 96.4568 45.4468 97.3374 46.2159C98.0218 46.8118 98.8782 46.8855 99.6607 46.8855C101.374 46.8855 102.377 46.2159 102.377 44.9505C102.377 43.61 101.374 43.3632 99.9793 43.0891L98.8782 42.8655ZM90.4363 41.0791C90.2642 38.0028 88.0874 37.4819 87.1329 37.4819C85.4697 37.4819 84.0755 38.7227 83.855 41.0791H90.4363ZM92.5646 44.4296C92.2957 45.2232 91.2672 48.3745 87.3534 48.3745C83.9289 48.3745 81.7012 46.0169 81.7012 42.0731C81.7012 37.6564 84.8325 35.9682 87.2794 35.9682C89.4078 35.9682 91.6585 37.16 92.3441 40.1123C92.5646 41.105 92.5646 41.9982 92.5646 42.4945H83.8066C83.7569 44.4541 84.7841 46.8855 87.5254 46.8855C89.2612 46.8855 90.24 45.7196 90.5828 44.1568L92.5646 44.4296ZM77.3464 48.0268H79.23V36.3405H77.3464V48.0268ZM77.3464 32.7923H79.23V30.5083H77.3464V32.7923ZM72.7698 36.3405H74.8739V37.9782H72.7698V44.6764C72.7698 46.0673 72.7698 46.6632 73.602 46.6632C73.9691 46.6632 74.4814 46.5132 74.8739 46.3904V48.0268C74.5311 48.076 73.7244 48.2246 72.9903 48.2246C70.7396 48.2246 70.7396 47.1091 70.7638 45.5709V37.9782H68.9286V36.3405H70.7638V32.6437H72.7698V36.3405ZM64.4018 36.3405V38.4746C65.5029 36.2668 67.5815 36.2151 68.3653 36.1918V38.3246C68.1206 38.3014 67.8759 38.2755 67.5586 38.2755C66.432 38.2755 65.4532 38.7227 64.8912 39.665C64.3776 40.5337 64.4018 41.5509 64.4018 42.6186V48.0268H62.4442V36.3405H64.4018ZM57.795 41.0791C57.623 38.0028 55.4462 37.4819 54.4917 37.4819C52.8272 37.4819 51.433 38.7227 51.2138 41.0791H57.795ZM59.9234 44.4296C59.6545 45.2232 58.626 48.3745 54.7121 48.3745C51.2864 48.3745 49.06 46.0169 49.06 42.0731C49.06 37.6564 52.1913 35.9682 54.6382 35.9682C56.7666 35.9682 59.0172 37.16 59.7029 40.1123C59.9234 41.105 59.9234 41.9982 59.9234 42.4945H51.1654C51.1144 44.4541 52.1429 46.8855 54.8829 46.8855C56.62 46.8855 57.5975 45.7196 57.9416 44.1568L59.9234 44.4296ZM37.8524 42.3692C37.8524 44.9001 39.1001 46.6373 41.4489 46.6373C42.1333 46.6373 42.8674 46.5132 43.4791 46.1164C44.1151 45.6937 45.1423 44.5278 45.1423 42.1714C45.1423 39.3923 43.6257 37.73 41.3992 37.8296C39.174 37.9032 37.8524 39.7142 37.8524 42.3692ZM35.9204 36.3405H37.8524V38.0028C38.2437 37.5568 38.4642 37.2582 38.9281 36.9364C39.6634 36.4155 40.8372 35.9682 41.9625 35.9682C44.4579 35.9682 47.1483 37.9782 47.1483 42.1959C47.1483 45.5218 45.387 48.3745 41.7421 48.3745C40.2013 48.3745 38.8312 47.8523 37.8524 46.6373V53.5591H35.9204V36.3405ZM31.1221 40.5337C30.6824 38.2264 29.1887 37.5568 27.8684 37.5568C25.2507 37.5568 24.1993 39.6159 24.1993 42.2955C24.1993 44.7514 25.2023 46.7859 27.7218 46.7859C30.9755 46.7859 31.2202 43.3632 31.2444 42.1714C31.2686 41.4269 31.196 40.8814 31.1221 40.5337ZM27.7461 48.3745C23.7583 48.3745 22.0709 45.3473 22.0709 42.2709C22.0709 39.665 23.3428 35.9682 27.82 35.9682C31.6357 35.9682 33.397 38.9696 33.3728 42.1714C33.3485 45.7196 31.2686 48.3745 27.7461 48.3745ZM16.9808 36.3405V38.4746C18.0819 36.2668 20.1605 36.2151 20.9443 36.1918V38.3246C20.6996 38.3014 20.4549 38.2755 20.1363 38.2755C19.011 38.2755 18.0322 38.7227 17.4702 39.665C16.9566 40.5337 16.9808 41.5509 16.9808 42.6186V48.0268H15.0232V36.3405H16.9808ZM2.22519 38.5482H7.04516C8.36549 38.5482 9.27035 38.5482 10.0541 37.7546C10.6417 37.16 10.8864 36.2901 10.8864 35.4215C10.8864 34.8269 10.7882 33.8846 9.98022 33.1891C9.22192 32.5441 8.36549 32.5196 7.55876 32.5196H2.22519V38.5482ZM2.22519 40.6086V48.0268H0V30.5083H7.46063C8.31706 30.5083 9.29457 30.5083 10.2007 30.8069C12.2309 31.5269 13.1612 33.4373 13.1612 35.4719C13.1612 37.3823 12.2806 39.6159 9.98022 40.3359C9.12379 40.6086 8.26736 40.6086 7.21594 40.6086H2.22519Z" fill="#0F3557"></path></svg>